<?xml version="1.0" standalone="no"?>
<!DOCTYPE svg PUBLIC "-//W3C//DTD SVG 20010904//EN"
 "http://www.w3.org/TR/2001/REC-SVG-20010904/DTD/svg10.dtd">
<svg version="1.0" xmlns="http://www.w3.org/2000/svg"
 width="433.000000pt" height="577.000000pt" viewBox="0 0 433.000000 577.000000"
 preserveAspectRatio="xMidYMid meet">

<g transform="translate(0.000000,577.000000) scale(0.100000,-0.100000)"
fill="#000000" stroke="none">
<path d="M1715 4210 c-87 -12 -139 -43 -252 -150 -102 -97 -144 -153 -168
-221 -8 -22 -22 -55 -31 -75 -13 -28 -14 -40 -5 -60 6 -14 11 -38 11 -54 0
-31 22 -50 50 -43 11 3 25 -6 39 -26 13 -17 26 -29 31 -26 4 2 19 -6 34 -20
15 -13 29 -24 31 -24 3 0 11 -2 18 -4 7 -3 5 -6 -5 -6 -9 -1 -37 -15 -62 -32
-46 -30 -59 -60 -33 -76 6 -4 12 -19 12 -33 0 -16 8 -29 23 -36 16 -8 20 -14
12 -19 -17 -10 -7 -28 18 -31 23 -4 64 41 77 85 5 16 10 20 17 13 6 -6 7 -18
3 -29 -5 -10 -10 -28 -11 -41 -2 -12 -12 -34 -23 -49 -12 -14 -21 -34 -21 -44
0 -11 -9 -28 -20 -39 -11 -11 -20 -27 -20 -36 0 -10 -6 -14 -15 -10 -9 3 -15
0 -15 -10 0 -8 10 -18 22 -23 30 -11 35 -78 6 -87 -16 -5 -18 -14 -16 -52 2
-25 9 -47 16 -50 6 -2 12 3 12 12 0 11 9 16 33 16 l32 -1 -27 -15 c-16 -8 -28
-18 -28 -22 0 -22 42 -92 56 -92 21 0 28 -24 14 -50 -16 -30 -5 -66 26 -86 30
-20 123 -21 185 -2 41 12 43 12 63 -17 39 -53 120 -140 129 -137 5 2 7 -6 4
-17 -4 -18 -2 -19 15 -10 41 22 23 2 -53 -59 -46 -37 -87 -78 -98 -100 -20
-40 -35 -126 -20 -116 15 9 10 -23 -5 -35 -12 -10 -15 -8 -19 11 -3 13 -4 5
-2 -17 1 -22 -1 -47 -6 -56 -8 -16 -21 -117 -24 -189 0 -19 -4 -55 -8 -80 -3
-25 -16 -130 -27 -235 -12 -104 -30 -262 -41 -350 -14 -119 -18 -203 -16 -328
4 -166 4 -169 28 -181 l24 -12 -3 -184 c-2 -102 -1 -267 3 -367 l7 -183 869 0
869 0 0 23 c0 12 -7 91 -17 174 l-17 153 72 137 c128 249 185 407 242 674 16
74 34 148 40 163 21 57 12 117 -30 186 -21 36 -51 92 -67 125 -24 53 -105 154
-207 259 -17 18 -70 73 -117 122 -47 49 -110 126 -139 172 -56 88 -98 127 -86
78 3 -14 2 -26 -3 -26 -5 0 -12 16 -15 35 -4 19 -17 44 -28 55 -12 11 -18 20
-13 20 4 0 -7 14 -24 31 -18 17 -35 28 -39 25 -3 -4 4 -13 16 -22 12 -8 22
-20 22 -26 0 -6 -7 -5 -17 3 -10 8 -1 -10 20 -39 20 -28 37 -57 37 -63 0 -5 4
-8 8 -5 4 2 8 -3 8 -12 0 -9 4 -27 8 -39 4 -13 4 -23 -1 -23 -9 0 -194 282
-211 322 -6 15 -29 38 -50 52 -21 13 -46 32 -55 41 -10 9 -17 13 -17 9 0 -3
-7 -1 -15 6 -10 9 -15 9 -15 1 0 -22 -21 -11 -31 17 -5 15 -32 43 -59 62 -27
19 -50 38 -50 43 0 4 -19 8 -42 8 -40 1 -41 2 -13 9 17 4 26 8 20 9 -5 1 -4 5
4 10 10 7 11 13 1 31 -6 12 -18 44 -26 72 -12 40 -21 53 -45 61 -25 10 -33 21
-46 67 -8 30 -19 59 -24 65 -15 16 -10 69 17 171 39 153 54 202 90 296 31 79
34 97 34 192 0 58 -4 116 -10 130 -5 13 -32 50 -59 80 -28 31 -59 72 -70 93
-26 52 -46 68 -128 102 -72 29 -154 49 -322 76 -101 16 -150 17 -246 5z m67
-902 c3 -7 -2 -20 -11 -29 -12 -13 -22 -14 -41 -7 -25 10 -25 10 -4 18 12 5
25 13 29 19 8 15 22 14 27 -1z m-75 -3110 c-3 -8 -6 -5 -6 6 -1 11 2 17 5 13
3 -3 4 -12 1 -19z"/>
</g>
</svg>
